<?xml version="1.0" encoding="UTF-8" standalone="no"?><!-- Generator: Gravit.io --><svg xmlns="http://www.w3.org/2000/svg" xmlns:xlink="http://www.w3.org/1999/xlink" style="isolation:isolate" viewBox="0 0 512 512" width="512pt" height="512pt"><defs><clipPath id="_clipPath_QE2ZIlZ4QcUWPMjzMZXRMiMbQwXwYaA7"><rect width="512" height="512"/></clipPath></defs><g clip-path="url(#_clipPath_QE2ZIlZ4QcUWPMjzMZXRMiMbQwXwYaA7)"><g><g><path d=" M 488.468 104.209 L 23.532 104.209 C 10.557 104.209 0 114.766 0 127.743 L 0 198.31 C 0 204.991 3.44 211.27 8.979 214.696 C 23.435 223.637 32.065 239.078 32.065 256.001 C 32.065 272.924 23.435 288.365 8.978 297.306 C 3.44 300.731 0 307.01 0 313.691 L 0 384.258 C 0 397.234 10.557 407.79 23.532 407.79 L 488.468 407.79 C 501.444 407.79 512 397.233 512 384.258 L 512 127.743 C 512 114.766 501.443 104.209 488.468 104.209 Z  M 497 384.258 C 497 388.963 493.173 392.79 488.468 392.79 L 119.21 392.79 L 119.21 392.274 C 119.21 388.132 115.853 384.774 111.71 384.774 C 107.567 384.774 104.21 388.132 104.21 392.274 L 104.21 392.79 L 23.532 392.79 C 18.827 392.79 15 388.962 15 384.258 L 15 313.691 C 15 312.166 15.717 310.775 16.869 310.062 C 35.776 298.368 47.064 278.158 47.064 256 C 47.064 233.842 35.776 213.632 16.869 201.938 C 15.717 201.224 15 199.834 15 198.308 L 15 127.741 C 15 123.036 18.827 119.209 23.532 119.209 L 104.21 119.209 L 104.21 119.725 C 104.21 123.867 107.567 127.225 111.71 127.225 C 115.853 127.225 119.21 123.867 119.21 119.725 L 119.21 119.209 L 488.468 119.209 C 493.173 119.209 497 123.037 497 127.741 L 497 384.258 L 497 384.258 Z " fill="rgb(255,255,255)"/></g></g><g><g><path d=" M 111.71 240.485 C 107.567 240.485 104.21 243.843 104.21 247.985 L 104.21 264.017 C 104.21 268.159 107.567 271.517 111.71 271.517 C 115.853 271.517 119.21 268.159 119.21 264.017 L 119.21 247.985 C 119.21 243.842 115.853 240.485 111.71 240.485 Z " fill="rgb(255,255,255)"/></g></g><g><g><path d=" M 111.71 144.292 C 107.567 144.292 104.21 147.65 104.21 151.792 L 104.21 167.824 C 104.21 171.966 107.567 175.324 111.71 175.324 C 115.853 175.324 119.21 171.966 119.21 167.824 L 119.21 151.792 C 119.21 147.649 115.853 144.292 111.71 144.292 Z " fill="rgb(255,255,255)"/></g></g><g><g><path d=" M 111.71 192.387 C 107.567 192.387 104.21 195.745 104.21 199.887 L 104.21 215.919 C 104.21 220.061 107.567 223.419 111.71 223.419 C 115.853 223.419 119.21 220.061 119.21 215.919 L 119.21 199.887 C 119.21 195.745 115.853 192.387 111.71 192.387 Z " fill="rgb(255,255,255)"/></g></g><g><g><path d=" M 111.71 288.581 C 107.567 288.581 104.21 291.939 104.21 296.081 L 104.21 312.113 C 104.21 316.255 107.567 319.613 111.71 319.613 C 115.853 319.613 119.21 316.255 119.21 312.113 L 119.21 296.081 C 119.21 291.938 115.853 288.581 111.71 288.581 Z " fill="rgb(255,255,255)"/></g></g><g><g><path d=" M 111.71 336.677 C 107.567 336.677 104.21 340.035 104.21 344.177 L 104.21 360.209 C 104.21 364.351 107.567 367.709 111.71 367.709 C 115.853 367.709 119.21 364.351 119.21 360.209 L 119.21 344.177 C 119.21 340.035 115.853 336.677 111.71 336.677 Z " fill="rgb(255,255,255)"/></g></g><g><g><path d=" M 401.57 230.137 C 399.096 222.522 392.335 217.251 384.348 216.71 L 340.098 213.71 L 323.572 172.554 C 320.588 165.124 313.487 160.324 305.48 160.324 C 297.473 160.324 290.373 165.125 287.39 172.554 L 270.863 213.71 L 226.613 216.71 C 218.626 217.252 211.866 222.522 209.392 230.136 C 206.917 237.751 209.288 245.988 215.433 251.121 L 249.468 279.558 L 238.647 322.569 C 236.694 330.333 239.617 338.391 246.094 343.096 C 252.571 347.801 261.137 348.092 267.918 343.835 L 305.481 320.253 L 343.043 343.834 C 346.239 345.841 349.831 346.837 353.415 346.837 C 357.434 346.837 361.442 345.584 364.867 343.096 C 371.345 338.39 374.267 330.332 372.314 322.568 L 361.494 279.557 L 395.528 251.121 C 401.673 245.988 404.044 237.751 401.57 230.137 Z  M 385.91 239.61 L 348.263 271.066 C 346.054 272.912 345.096 275.859 345.798 278.651 L 357.767 326.228 C 358.436 328.888 356.789 330.424 356.05 330.961 C 355.31 331.498 353.339 332.588 351.018 331.131 L 309.468 305.046 C 307.03 303.516 303.931 303.516 301.493 305.046 L 259.942 331.131 C 257.618 332.59 255.648 331.498 254.91 330.961 C 254.171 330.424 252.524 328.888 253.193 326.229 L 265.163 278.652 C 265.865 275.86 264.908 272.912 262.698 271.067 L 225.05 239.61 C 222.946 237.851 223.375 235.64 223.657 234.771 C 223.939 233.902 224.891 231.861 227.628 231.676 L 276.575 228.357 C 279.447 228.162 281.954 226.34 283.027 223.669 L 301.309 178.143 C 302.33 175.599 304.566 175.324 305.479 175.324 C 306.393 175.324 308.629 175.599 309.651 178.144 L 327.932 223.669 C 329.005 226.34 331.512 228.162 334.384 228.357 L 383.331 231.676 C 386.067 231.862 387.019 233.903 387.303 234.772 C 387.586 235.641 388.015 237.85 385.91 239.61 Z " fill="rgb(255,255,255)"/></g></g></g></svg>