<?xml version="1.0" encoding="UTF-8" standalone="no"?><!-- Generator: Gravit.io --><svg xmlns="http://www.w3.org/2000/svg" xmlns:xlink="http://www.w3.org/1999/xlink" style="isolation:isolate" viewBox="0 0 30 27" width="30pt" height="27pt"><defs><clipPath id="_clipPath_U4RpYbU22WfunnTjLtqEn1AbQWTHUJTC"><rect width="30" height="27"/></clipPath></defs><g clip-path="url(#_clipPath_U4RpYbU22WfunnTjLtqEn1AbQWTHUJTC)"><g><g><g><g><path d=" M 26.706 20.058 L 21.443 16.548 C 20.775 16.107 19.88 16.252 19.386 16.882 L 17.853 18.854 C 17.656 19.113 17.298 19.189 17.013 19.03 L 16.721 18.87 C 15.754 18.343 14.551 17.687 12.128 15.262 C 9.705 12.838 9.047 11.634 8.52 10.669 L 8.36 10.378 C 8.2 10.093 8.274 9.733 8.534 9.535 L 10.504 8.002 C 11.134 7.508 11.279 6.613 10.838 5.945 L 7.328 0.682 C 6.876 0.002 5.969 -0.202 5.268 0.219 L 3.068 1.541 C 2.376 1.947 1.869 2.605 1.652 3.378 C 0.86 6.265 1.456 11.249 8.797 18.591 C 14.636 24.43 18.984 26 21.972 26 C 22.659 26.003 23.344 25.913 24.008 25.734 C 24.781 25.517 25.439 25.01 25.845 24.318 L 27.169 22.119 C 27.59 21.419 27.386 20.511 26.706 20.058 Z  M 26.422 21.674 L 25.102 23.875 C 24.81 24.374 24.337 24.741 23.78 24.899 C 21.115 25.631 16.458 25.025 9.41 17.977 C 2.362 10.93 1.756 6.273 2.488 3.607 C 2.646 3.05 3.014 2.576 3.514 2.284 L 5.714 0.963 C 6.018 0.781 6.412 0.869 6.608 1.164 L 8.515 4.027 L 10.115 6.427 C 10.307 6.717 10.244 7.105 9.97 7.32 L 8 8.852 C 7.4 9.311 7.229 10.14 7.598 10.798 L 7.755 11.083 C 8.309 12.098 8.997 13.362 11.511 15.875 C 14.024 18.388 15.287 19.077 16.303 19.63 L 16.587 19.787 C 17.246 20.156 18.075 19.985 18.534 19.386 L 20.066 17.415 C 20.281 17.142 20.669 17.079 20.959 17.271 L 26.221 20.78 C 26.517 20.977 26.605 21.371 26.422 21.674 Z " fill="rgb(255,255,255)"/><path d=" M 16.12 4.335 C 20.186 4.339 23.481 7.635 23.486 11.701 C 23.486 11.94 23.68 12.134 23.919 12.134 C 24.158 12.134 24.352 11.94 24.352 11.701 C 24.347 7.156 20.664 3.473 16.12 3.468 C 15.88 3.468 15.686 3.662 15.686 3.902 C 15.686 4.141 15.88 4.335 16.12 4.335 Z " fill="rgb(255,255,255)"/><path d=" M 16.12 6.935 C 18.751 6.938 20.883 9.07 20.886 11.701 C 20.886 11.94 21.08 12.134 21.319 12.134 C 21.558 12.134 21.752 11.94 21.752 11.701 C 21.749 8.592 19.229 6.072 16.12 6.068 C 15.88 6.068 15.686 6.262 15.686 6.501 C 15.686 6.741 15.88 6.935 16.12 6.935 Z " fill="rgb(255,255,255)"/><path d=" M 16.12 9.535 C 17.315 9.536 18.285 10.505 18.286 11.701 C 18.286 11.94 18.48 12.134 18.719 12.134 C 18.959 12.134 19.153 11.94 19.153 11.701 C 19.151 10.027 17.794 8.67 16.12 8.668 C 15.88 8.668 15.686 8.862 15.686 9.101 C 15.686 9.341 15.88 9.535 16.12 9.535 Z " fill="rgb(255,255,255)"/></g></g></g></g></g></svg>