<?xml version="1.0" encoding="UTF-8" standalone="no"?><!-- Generator: Gravit.io --><svg xmlns="http://www.w3.org/2000/svg" xmlns:xlink="http://www.w3.org/1999/xlink" style="isolation:isolate" viewBox="0 0 30 26" width="30pt" height="26pt"><defs><clipPath id="_clipPath_TdDNYh0zCSwg8BgwddbGhQPyr34N9SOJ"><rect width="30" height="26"/></clipPath></defs><g clip-path="url(#_clipPath_TdDNYh0zCSwg8BgwddbGhQPyr34N9SOJ)"><g><path d=" M 8.356 18.909 C 9.887 17.804 10.531 15.836 9.95 14.039 C 9.369 12.242 7.695 11.024 5.806 11.024 C 3.917 11.024 2.244 12.242 1.663 14.039 C 1.082 15.836 1.725 17.804 3.257 18.909 C 1.34 19.411 0.003 21.142 0 23.124 L 0 25.059 C 0 25.327 0.217 25.543 0.484 25.543 L 11.129 25.543 C 11.396 25.543 11.613 25.327 11.613 25.059 L 11.613 23.124 C 11.61 21.142 10.273 19.411 8.356 18.909 L 8.356 18.909 Z  M 2.419 15.382 C 2.419 13.511 3.936 11.995 5.806 11.995 C 7.677 11.995 9.194 13.511 9.194 15.382 C 9.194 17.253 7.677 18.769 5.806 18.769 C 3.937 18.767 2.421 17.252 2.419 15.382 Z  M 10.645 24.575 L 0.968 24.575 L 0.968 23.124 C 0.97 21.254 2.485 19.739 4.355 19.737 L 7.258 19.737 C 9.128 19.739 10.643 21.254 10.645 23.124 L 10.645 24.575 Z " fill="rgb(255,255,255)"/><path d=" M 27.581 -0.102 L 11.613 -0.102 C 10.277 -0.101 9.195 0.982 9.194 2.317 L 9.194 10.059 C 9.195 11.395 10.277 12.477 11.613 12.479 L 11.613 15.866 C 11.613 16.048 11.715 16.214 11.877 16.297 C 12.039 16.379 12.234 16.364 12.381 16.257 L 17.577 12.479 L 27.581 12.479 C 28.916 12.477 29.999 11.395 30 10.059 L 30 2.317 C 29.999 0.982 28.916 -0.101 27.581 -0.102 L 27.581 -0.102 Z  M 29.032 10.059 C 29.031 10.861 28.382 11.51 27.581 11.511 L 17.419 11.511 C 17.317 11.511 17.218 11.543 17.135 11.603 L 12.581 14.916 L 12.581 11.995 C 12.581 11.728 12.364 11.511 12.097 11.511 L 11.613 11.511 C 10.812 11.51 10.162 10.861 10.161 10.059 L 10.161 2.317 C 10.162 1.516 10.812 0.867 11.613 0.866 L 27.581 0.866 C 28.382 0.867 29.031 1.516 29.032 2.317 L 29.032 10.059 Z " fill="rgb(255,255,255)"/><path d=" M 19.839 4.253 C 18.77 4.253 17.903 5.119 17.903 6.188 C 17.903 7.257 18.77 8.124 19.839 8.124 C 20.908 8.124 21.774 7.257 21.774 6.188 C 21.773 5.12 20.907 4.254 19.839 4.253 L 19.839 4.253 Z  M 19.839 7.156 C 19.304 7.156 18.871 6.723 18.871 6.188 C 18.871 5.654 19.304 5.221 19.839 5.221 C 20.373 5.221 20.806 5.654 20.806 6.188 C 20.806 6.723 20.373 7.155 19.839 7.156 L 19.839 7.156 Z " fill="rgb(255,255,255)"/><path d=" M 14.94 4.253 C 13.871 4.253 13.004 5.119 13.004 6.188 C 13.004 7.257 13.871 8.124 14.94 8.124 C 16.008 8.124 16.875 7.257 16.875 6.188 C 16.874 5.12 16.008 4.254 14.94 4.253 L 14.94 4.253 Z  M 14.94 7.156 C 14.405 7.156 13.972 6.723 13.972 6.188 C 13.972 5.654 14.405 5.221 14.94 5.221 C 15.474 5.221 15.907 5.654 15.907 6.188 C 15.907 6.723 15.474 7.155 14.94 7.156 L 14.94 7.156 Z " fill="rgb(255,255,255)"/><path d=" M 24.677 8.124 C 25.746 8.124 26.613 7.257 26.613 6.188 C 26.613 5.119 25.746 4.253 24.677 4.253 C 23.608 4.253 22.742 5.119 22.742 6.188 C 22.743 7.257 23.609 8.123 24.677 8.124 L 24.677 8.124 Z  M 24.677 5.221 C 25.212 5.221 25.645 5.654 25.645 6.188 C 25.645 6.723 25.212 7.156 24.677 7.156 C 24.143 7.156 23.71 6.723 23.71 6.188 C 23.71 5.654 24.143 5.221 24.677 5.221 L 24.677 5.221 Z " fill="rgb(255,255,255)"/><path d=" M 25.645 9.575 L 21.774 9.575 C 21.507 9.575 21.29 9.792 21.29 10.059 C 21.29 10.327 21.507 10.543 21.774 10.543 L 25.645 10.543 C 25.912 10.543 26.129 10.327 26.129 10.059 C 26.129 9.792 25.912 9.575 25.645 9.575 Z " fill="rgb(255,255,255)"/><path d=" M 27.581 9.575 L 27.097 9.575 C 26.83 9.575 26.613 9.792 26.613 10.059 C 26.613 10.327 26.83 10.543 27.097 10.543 L 27.581 10.543 C 27.848 10.543 28.065 10.327 28.065 10.059 C 28.065 9.792 27.848 9.575 27.581 9.575 Z " fill="rgb(255,255,255)"/></g></g></svg>