<?xml version="1.0" encoding="UTF-8" standalone="no"?><!-- Generator: Gravit.io --><svg xmlns="http://www.w3.org/2000/svg" xmlns:xlink="http://www.w3.org/1999/xlink" style="isolation:isolate" viewBox="0 0 51.997 51.997" width="51.997pt" height="51.997pt"><defs><clipPath id="_clipPath_pp5iBgxaYJpOHKbZRw9HFeGeVmN5II9t"><rect width="51.997" height="51.997"/></clipPath></defs><g clip-path="url(#_clipPath_pp5iBgxaYJpOHKbZRw9HFeGeVmN5II9t)"><path d=" M 51.911 16.242 C 51.152 7.888 45.239 1.827 37.839 1.827 C 32.909 1.827 28.395 4.48 25.855 8.732 C 23.338 4.425 19.009 1.826 14.158 1.826 C 6.759 1.826 0.845 7.887 0.087 16.241 C 0.027 16.61 -0.219 18.552 0.529 21.719 C 1.607 26.287 4.097 30.442 7.728 33.732 L 25.843 50.171 L 44.269 33.733 C 47.9 30.442 50.39 26.288 51.468 21.719 C 52.216 18.553 51.97 16.611 51.911 16.242 Z  M 15.999 9.904 C 11.588 9.904 7.999 13.493 7.999 17.904 C 7.999 18.457 7.552 18.904 6.999 18.904 C 6.446 18.904 5.999 18.457 5.999 17.904 C 5.999 12.39 10.485 7.904 15.999 7.904 C 16.552 7.904 16.999 8.351 16.999 8.904 C 16.999 9.457 16.551 9.904 15.999 9.904 Z " fill="rgb(243,126,118)"/></g></svg>