<?xml version="1.0" encoding="UTF-8" standalone="no"?><!-- Generator: Gravit.io --><svg xmlns="http://www.w3.org/2000/svg" xmlns:xlink="http://www.w3.org/1999/xlink" style="isolation:isolate" viewBox="0 0 339.193 339.193" width="339.193pt" height="339.193pt"><defs><clipPath id="_clipPath_OSGOOWOy5vDbarbpubYuGw2Cc3CLtH6q"><rect width="339.193" height="339.193"/></clipPath></defs><g clip-path="url(#_clipPath_OSGOOWOy5vDbarbpubYuGw2Cc3CLtH6q)"><g><g><path d=" M 170.71 36.061 C 168.874 38.509 165.814 38.509 163.978 36.061 C 160.918 32.389 162.142 28.105 162.142 23.208 C 162.142 17.088 161.53 10.969 160.306 4.849 C 159.082 -0.047 166.426 -1.883 168.262 2.401 C 170.099 7.297 171.323 12.805 171.935 18.313 C 172.547 24.433 174.383 31.165 170.71 36.061 Z " fill="rgb(245,143,138)"/><path d=" M 171.322 61.765 C 170.098 65.437 169.486 68.496 168.873 72.168 C 168.873 74.004 169.485 75.84 168.873 77.677 C 168.261 79.513 168.261 80.737 167.038 82.573 C 165.814 85.021 161.53 85.021 160.306 82.573 C 158.47 78.289 158.47 75.229 159.694 70.945 C 160.918 66.661 161.53 62.989 163.978 58.705 C 166.426 55.033 172.547 57.481 171.322 61.765 Z " fill="rgb(245,143,138)"/><path d=" M 167.038 137.041 C 165.814 138.877 162.754 138.877 160.918 137.041 C 158.47 133.981 159.082 131.533 159.082 127.861 C 159.082 124.189 159.694 121.129 159.694 117.457 C 160.306 112.561 167.038 112.561 167.038 117.457 C 167.038 120.518 167.65 123.577 167.65 126.638 C 168.874 130.309 170.099 133.369 167.038 137.041 Z " fill="rgb(245,143,138)"/><path d=" M 167.65 164.581 C 165.202 171.313 166.426 178.045 164.59 184.777 C 163.366 188.449 157.858 188.449 156.634 184.777 C 154.186 177.433 156.634 168.865 160.918 162.132 C 162.754 158.461 168.874 160.909 167.65 164.581 Z " fill="rgb(245,143,138)"/><path d=" M 163.366 242.917 C 162.142 244.141 159.694 244.141 158.47 242.917 C 154.798 239.245 156.022 234.349 156.022 229.453 C 156.022 225.169 156.022 220.273 156.634 215.989 C 157.246 212.317 163.366 212.317 163.978 215.989 C 164.59 220.273 164.59 223.945 164.59 228.229 C 165.814 233.125 167.038 238.633 163.366 242.917 Z " fill="rgb(245,143,138)"/><path d=" M 157.246 295.549 C 153.574 295.549 151.126 291.877 152.35 288.817 C 153.574 283.921 153.574 277.801 154.186 272.905 C 154.798 269.845 160.306 269.845 160.918 272.905 C 161.53 278.413 160.918 283.921 162.754 288.817 C 163.366 291.877 160.918 295.549 157.246 295.549 Z " fill="rgb(245,143,138)"/><path d=" M 215.387 297.997 C 201.311 313.297 186.011 328.597 167.038 338.389 C 164.59 339.613 161.53 339.613 159.694 337.165 C 146.842 321.865 137.05 304.729 123.586 290.041 C 118.69 285.145 126.646 277.801 130.93 282.697 C 143.17 296.161 152.35 312.073 164.59 325.537 C 180.502 315.745 191.519 301.669 205.595 288.817 C 212.326 282.697 220.895 291.877 215.387 297.997 Z " fill="rgb(245,143,138)"/></g></g></g></svg>