<?xml version="1.0" encoding="UTF-8" standalone="no"?><!-- Generator: Gravit.io --><svg xmlns="http://www.w3.org/2000/svg" xmlns:xlink="http://www.w3.org/1999/xlink" style="isolation:isolate" viewBox="0 0 339.193 339.193" width="339.193pt" height="339.193pt"><defs><clipPath id="_clipPath_m0CbZtLHTYbBXAv2wRFIyJmZvMmGlIlx"><rect width="339.193" height="339.193"/></clipPath></defs><g clip-path="url(#_clipPath_m0CbZtLHTYbBXAv2wRFIyJmZvMmGlIlx)"><g><g><path d=" M 168.483 36.061 C 170.319 38.509 173.379 38.509 175.215 36.061 C 178.275 32.389 177.051 28.105 177.051 23.208 C 177.051 17.088 177.663 10.969 178.887 4.849 C 180.111 -0.047 172.767 -1.883 170.931 2.401 C 169.094 7.297 167.87 12.805 167.258 18.313 C 166.646 24.433 164.81 31.165 168.483 36.061 Z " fill="rgb(245,143,138)"/><path d=" M 167.871 61.765 C 169.095 65.437 169.707 68.496 170.32 72.168 C 170.32 74.004 169.708 75.84 170.32 77.677 C 170.932 79.513 170.932 80.737 172.155 82.573 C 173.379 85.021 177.663 85.021 178.887 82.573 C 180.723 78.289 180.723 75.229 179.499 70.945 C 178.275 66.661 177.663 62.989 175.215 58.705 C 172.767 55.033 166.646 57.481 167.871 61.765 Z " fill="rgb(245,143,138)"/><path d=" M 172.155 137.041 C 173.379 138.877 176.439 138.877 178.275 137.041 C 180.723 133.981 180.111 131.533 180.111 127.861 C 180.111 124.189 179.499 121.129 179.499 117.457 C 178.887 112.561 172.155 112.561 172.155 117.457 C 172.155 120.518 171.543 123.577 171.543 126.638 C 170.319 130.309 169.094 133.369 172.155 137.041 Z " fill="rgb(245,143,138)"/><path d=" M 171.543 164.581 C 173.991 171.313 172.767 178.045 174.603 184.777 C 175.827 188.449 181.335 188.449 182.559 184.777 C 185.007 177.433 182.559 168.865 178.275 162.132 C 176.439 158.461 170.319 160.909 171.543 164.581 Z " fill="rgb(245,143,138)"/><path d=" M 175.827 242.917 C 177.051 244.141 179.499 244.141 180.723 242.917 C 184.395 239.245 183.171 234.349 183.171 229.453 C 183.171 225.169 183.171 220.273 182.559 215.989 C 181.947 212.317 175.827 212.317 175.215 215.989 C 174.603 220.273 174.603 223.945 174.603 228.229 C 173.379 233.125 172.155 238.633 175.827 242.917 Z " fill="rgb(245,143,138)"/><path d=" M 181.947 295.549 C 185.619 295.549 188.067 291.877 186.843 288.817 C 185.619 283.921 185.619 277.801 185.007 272.905 C 184.395 269.845 178.887 269.845 178.275 272.905 C 177.663 278.413 178.275 283.921 176.439 288.817 C 175.827 291.877 178.275 295.549 181.947 295.549 Z " fill="rgb(245,143,138)"/><path d=" M 123.806 297.997 C 137.882 313.297 153.182 328.597 172.155 338.389 C 174.603 339.613 177.663 339.613 179.499 337.165 C 192.351 321.865 202.143 304.729 215.607 290.041 C 220.503 285.145 212.547 277.801 208.263 282.697 C 196.023 296.161 186.843 312.073 174.603 325.537 C 158.691 315.745 147.674 301.669 133.598 288.817 C 126.867 282.697 118.298 291.877 123.806 297.997 Z " fill="rgb(245,143,138)"/></g></g></g></svg>